<mxfile host="www.draw.io" modified="2019-10-26T18:57:07.748Z" agent="Mozilla/5.0 (Windows NT 10.0; Win64; x64) AppleWebKit/537.36 (KHTML, like Gecko) Chrome/77.0.3865.120 Safari/537.36" etag="JKnywTyFGpMkWlIyAvmB" version="12.1.7" type="github" pages="1">
  <diagram id="EKQ9gEYxcX59T3O1TkDX" name="Page-1">
    <mxGraphModel dx="1422" dy="794" grid="1" gridSize="10" guides="1" tooltips="1" connect="1" arrows="1" fold="1" page="1" pageScale="1" pageWidth="1100" pageHeight="850" math="0" shadow="0">
      <root>
        <mxCell id="0"/>
        <mxCell id="1" parent="0"/>
        <mxCell id="-8I91xpcJLSlorf05Vpi-1" value="" style="rounded=0;whiteSpace=wrap;html=1;fillColor=#f5f5f5;strokeColor=#666666;fontColor=#333333;" vertex="1" parent="1">
          <mxGeometry x="310" y="90" width="570" height="480" as="geometry"/>
        </mxCell>
        <mxCell id="-8I91xpcJLSlorf05Vpi-2" value="Base Station Computer" style="text;html=1;strokeColor=none;fillColor=none;align=center;verticalAlign=middle;whiteSpace=wrap;rounded=0;fontStyle=1;fontSize=15;" vertex="1" parent="1">
          <mxGeometry x="710" y="550" width="170" height="20" as="geometry"/>
        </mxCell>
        <mxCell id="-8I91xpcJLSlorf05Vpi-3" value="Tether Interface Board" style="rounded=1;whiteSpace=wrap;html=1;fillColor=#fff2cc;strokeColor=#d6b656;fontStyle=1" vertex="1" parent="1">
          <mxGeometry x="512.5" y="620" width="165" height="60" as="geometry"/>
        </mxCell>
        <mxCell id="-8I91xpcJLSlorf05Vpi-5" value="Ethernet Connection" style="text;html=1;strokeColor=none;fillColor=none;align=center;verticalAlign=middle;whiteSpace=wrap;rounded=0;fontStyle=1" vertex="1" parent="1">
          <mxGeometry x="620" y="585" width="40" height="20" as="geometry"/>
        </mxCell>
        <mxCell id="-8I91xpcJLSlorf05Vpi-6" value="&lt;b&gt;ROV&lt;/b&gt;" style="shape=image;html=1;verticalAlign=top;verticalLabelPosition=bottom;labelBackgroundColor=#ffffff;imageAspect=0;aspect=fixed;image=https://cdn4.iconfinder.com/data/icons/vehicle-set/64/submarine-128.png" vertex="1" parent="1">
          <mxGeometry x="760" y="670" width="128" height="128" as="geometry"/>
        </mxCell>
        <mxCell id="-8I91xpcJLSlorf05Vpi-8" value="Twister Pair Tether" style="text;html=1;strokeColor=none;fillColor=none;align=center;verticalAlign=middle;whiteSpace=wrap;rounded=0;fontStyle=1" vertex="1" parent="1">
          <mxGeometry x="609" y="739" width="130" height="20" as="geometry"/>
        </mxCell>
        <mxCell id="-8I91xpcJLSlorf05Vpi-9" value="" style="endArrow=classic;startArrow=classic;html=1;entryX=0;entryY=0.5;entryDx=0;entryDy=0;exitX=0.5;exitY=1;exitDx=0;exitDy=0;" edge="1" parent="1" source="-8I91xpcJLSlorf05Vpi-3" target="-8I91xpcJLSlorf05Vpi-6">
          <mxGeometry width="50" height="50" relative="1" as="geometry">
            <mxPoint x="530" y="800" as="sourcePoint"/>
            <mxPoint x="580" y="750" as="targetPoint"/>
            <Array as="points">
              <mxPoint x="595" y="734"/>
            </Array>
          </mxGeometry>
        </mxCell>
        <mxCell id="-8I91xpcJLSlorf05Vpi-10" value="" style="endArrow=classic;startArrow=classic;html=1;entryX=0.5;entryY=1;entryDx=0;entryDy=0;exitX=0.5;exitY=0;exitDx=0;exitDy=0;" edge="1" parent="1" source="-8I91xpcJLSlorf05Vpi-3" target="-8I91xpcJLSlorf05Vpi-1">
          <mxGeometry width="50" height="50" relative="1" as="geometry">
            <mxPoint x="390" y="680" as="sourcePoint"/>
            <mxPoint x="440" y="630" as="targetPoint"/>
          </mxGeometry>
        </mxCell>
        <mxCell id="-8I91xpcJLSlorf05Vpi-16" style="edgeStyle=orthogonalEdgeStyle;rounded=0;orthogonalLoop=1;jettySize=auto;html=1;exitX=0;exitY=0.5;exitDx=0;exitDy=0;entryX=0.5;entryY=1;entryDx=0;entryDy=0;" edge="1" parent="1" source="-8I91xpcJLSlorf05Vpi-11" target="-8I91xpcJLSlorf05Vpi-15">
          <mxGeometry relative="1" as="geometry"/>
        </mxCell>
        <mxCell id="-8I91xpcJLSlorf05Vpi-11" value="* Tether Data Bridge Program" style="rounded=1;whiteSpace=wrap;html=1;fillColor=#d5e8d4;strokeColor=#82b366;fontStyle=1" vertex="1" parent="1">
          <mxGeometry x="535" y="470" width="120" height="60" as="geometry"/>
        </mxCell>
        <mxCell id="-8I91xpcJLSlorf05Vpi-12" value="" style="endArrow=classic;startArrow=classic;html=1;exitX=0.5;exitY=1;exitDx=0;exitDy=0;entryX=0.5;entryY=1;entryDx=0;entryDy=0;" edge="1" parent="1" source="-8I91xpcJLSlorf05Vpi-1" target="-8I91xpcJLSlorf05Vpi-11">
          <mxGeometry width="50" height="50" relative="1" as="geometry">
            <mxPoint x="410" y="700" as="sourcePoint"/>
            <mxPoint x="460" y="650" as="targetPoint"/>
          </mxGeometry>
        </mxCell>
        <mxCell id="-8I91xpcJLSlorf05Vpi-13" value="UDP/TCP Connection" style="text;html=1;strokeColor=none;fillColor=none;align=center;verticalAlign=middle;whiteSpace=wrap;rounded=0;fontStyle=1" vertex="1" parent="1">
          <mxGeometry x="460" y="540" width="130" height="20" as="geometry"/>
        </mxCell>
        <mxCell id="-8I91xpcJLSlorf05Vpi-14" value="&lt;b&gt;* Note:&lt;/b&gt; Tether Data bridge program will do any data pre-processing or brief calculations needed on incoming data packets before updating a global field for each data element. The contents of this global field will be published over its respective rostopic at a fixed interval. Tether Data bridge program will also transmit relevant fields from joystick topic to ROV." style="text;html=1;strokeColor=none;fillColor=none;align=center;verticalAlign=middle;whiteSpace=wrap;rounded=0;" vertex="1" parent="1">
          <mxGeometry x="140" y="620" width="360" height="60" as="geometry"/>
        </mxCell>
        <mxCell id="-8I91xpcJLSlorf05Vpi-15" value="Any Nodes Subscribing To Data Coming From ROV" style="rounded=1;whiteSpace=wrap;html=1;fillColor=#d5e8d4;strokeColor=#82b366;fontStyle=1" vertex="1" parent="1">
          <mxGeometry x="340" y="180" width="140" height="110" as="geometry"/>
        </mxCell>
        <mxCell id="-8I91xpcJLSlorf05Vpi-17" value="Rostopics for incomming mission data and live feed images" style="text;html=1;strokeColor=none;fillColor=none;align=center;verticalAlign=middle;whiteSpace=wrap;rounded=0;fontStyle=1" vertex="1" parent="1">
          <mxGeometry x="414" y="457" width="80" height="10" as="geometry"/>
        </mxCell>
        <mxCell id="-8I91xpcJLSlorf05Vpi-21" style="edgeStyle=orthogonalEdgeStyle;rounded=0;orthogonalLoop=1;jettySize=auto;html=1;exitX=0.5;exitY=1;exitDx=0;exitDy=0;entryX=1;entryY=0.5;entryDx=0;entryDy=0;" edge="1" parent="1" source="-8I91xpcJLSlorf05Vpi-20" target="-8I91xpcJLSlorf05Vpi-11">
          <mxGeometry relative="1" as="geometry"/>
        </mxCell>
        <mxCell id="-8I91xpcJLSlorf05Vpi-20" value="ROS joy_node" style="rounded=1;whiteSpace=wrap;html=1;fillColor=#d5e8d4;strokeColor=#82b366;fontStyle=1" vertex="1" parent="1">
          <mxGeometry x="684" y="175" width="140" height="115" as="geometry"/>
        </mxCell>
      </root>
    </mxGraphModel>
  </diagram>
</mxfile>
